<?xml version="1.0" standalone="no"?>
<!DOCTYPE svg PUBLIC "-//W3C//DTD SVG 20010904//EN"
 "http://www.w3.org/TR/2001/REC-SVG-20010904/DTD/svg10.dtd">
<svg version="1.0" xmlns="http://www.w3.org/2000/svg"
 width="80.000000pt" height="80.000000pt" viewBox="0 0 80.000000 80.000000"
 preserveAspectRatio="xMidYMid meet">

<g transform="translate(0.000000,80.000000) scale(0.100000,-0.100000)"
fill="#620c22d4" stroke="none">
<path d="M342 729 c-112 -19 -212 -95 -261 -198 -22 -48 -26 -69 -26 -151 0
-79 4 -103 24 -142 58 -119 172 -197 298 -205 38 -3 79 0 93 6 20 9 14 10 -31
5 -67 -7 -161 14 -216 49 -52 33 -111 100 -137 156 -32 69 -30 207 4 276 31
64 101 134 165 165 72 35 190 39 267 10 75 -28 150 -96 185 -168 25 -50 28
-68 28 -152 0 -83 -3 -101 -25 -140 -23 -41 -29 -45 -68 -48 -46 -3 -52 6 -22
33 30 27 26 69 -11 99 -35 30 -49 32 -88 11 -28 -14 -31 -13 -72 19 -24 18
-59 53 -78 76 l-34 43 17 32 c21 38 16 62 -19 95 -49 46 -102 21 -126 -61 -20
-67 -1 -107 104 -213 116 -118 145 -136 219 -136 31 0 68 -5 81 -11 19 -9 32
-8 60 6 49 23 79 100 79 200 -1 218 -193 379 -410 344z"/>
<path d="M453 559 c70 -17 109 -57 128 -134 l7 -30 1 31 c2 62 -81 145 -143
143 -30 -1 -30 -1 7 -10z"/>
<path d="M420 530 c0 -5 12 -10 26 -10 35 0 94 -59 94 -94 0 -14 4 -26 9 -26
10 0 0 44 -17 77 -19 35 -112 79 -112 53z"/>
<path d="M420 496 c0 -3 16 -12 35 -20 26 -11 37 -23 41 -46 4 -16 11 -30 16
-30 15 0 -2 43 -26 66 -20 21 -66 41 -66 30z"/>
</g>
</svg>
