<?xml version="1.0" standalone="no"?>
<!DOCTYPE svg PUBLIC "-//W3C//DTD SVG 20010904//EN"
 "http://www.w3.org/TR/2001/REC-SVG-20010904/DTD/svg10.dtd">
<svg version="1.0" xmlns="http://www.w3.org/2000/svg"
 width="200.000000pt" height="201.000000pt" viewBox="0 0 200.000000 201.000000"
 preserveAspectRatio="xMidYMid meet">

<g transform="translate(0.000000,201.000000) scale(0.100000,-0.100000)"
fill="#000000" stroke="none">
<path d="M338 1123 c-2 -11 -3 -113 -1 -113 1 0 18 14 38 31 25 22 35 39 35
60 0 26 -3 29 -35 29 -19 0 -36 -3 -37 -7z"/>
<path d="M606 1048 c-9 -37 -7 -108 4 -108 6 0 11 24 11 53 l1 52 17 -52 c8
-29 19 -53 23 -53 3 0 15 24 25 53 l18 52 3 -52 c2 -30 8 -53 14 -53 7 0 8 14
4 38 -3 20 -6 47 -6 60 0 37 -26 25 -39 -19 -14 -46 -21 -44 -36 9 -12 42 -30
52 -39 20z"/>
<path d="M1570 1005 c0 -37 4 -65 10 -65 6 0 10 13 10 29 0 29 21 57 33 44 4
-3 7 -21 7 -40 0 -23 5 -33 15 -33 19 0 20 48 0 73 -9 13 -20 17 -34 12 -18
-5 -21 -2 -21 19 0 14 -4 26 -10 26 -6 0 -10 -28 -10 -65z"/>
<path d="M900 1000 c0 -58 15 -84 22 -37 2 14 11 23 26 25 12 2 22 7 22 12 0
5 -10 10 -22 12 -33 4 -28 32 7 39 27 6 26 7 -12 8 l-43 1 0 -60z"/>
<path d="M1103 1041 c-6 -10 -8 -22 -3 -27 5 -5 10 -22 12 -39 2 -21 9 -31 23
-33 16 -3 18 -1 8 9 -7 7 -13 25 -13 40 0 15 6 30 13 32 10 4 10 6 0 6 -7 1
-13 8 -13 16 0 21 -13 19 -27 -4z"/>
<path d="M770 988 c17 -39 18 -44 3 -60 -14 -16 -14 -18 -1 -18 14 0 71 109
62 119 -7 8 -24 -12 -24 -29 0 -32 -18 -32 -25 0 -4 16 -13 30 -20 30 -11 0
-10 -9 5 -42z"/>
<path d="M1023 1023 c28 -4 38 -23 13 -23 -8 0 -22 -7 -31 -16 -21 -22 -3 -43
36 -42 25 1 29 5 29 29 0 47 -9 59 -44 58 -30 -2 -30 -2 -3 -6z m27 -47 c0
-21 -20 -30 -33 -17 -9 9 -8 14 3 21 21 14 30 12 30 -4z"/>
<path d="M1170 1010 c-27 -50 36 -95 71 -51 26 31 11 65 -29 69 -23 2 -34 -2
-42 -18z m59 -9 c7 -13 6 -24 -3 -37 -12 -15 -16 -16 -30 -5 -19 16 -20 33 -4
49 17 17 26 15 37 -7z"/>
<path d="M1293 1023 c-18 -7 -16 -58 2 -73 20 -17 62 -5 70 20 13 42 -27 72
-72 53z m51 -26 c8 -12 7 -21 -6 -33 -20 -20 -38 -11 -38 20 0 39 23 46 44 13z"/>
<path d="M1400 983 c0 -24 5 -43 10 -43 6 0 10 16 10 35 0 19 5 35 10 35 6 0
10 4 10 8 0 4 -9 8 -20 8 -17 0 -20 -7 -20 -43z"/>
<path d="M1485 1023 c30 -7 43 -23 18 -23 -25 0 -47 -25 -40 -45 4 -9 19 -14
42 -13 32 1 35 4 35 33 0 38 -16 55 -49 54 -21 -1 -22 -2 -6 -6z m35 -47 c0
-20 -19 -31 -32 -18 -6 6 -7 15 -4 21 10 16 36 13 36 -3z"/>
<path d="M344 994 c-17 -7 -1 -70 17 -66 8 1 6 -4 -5 -13 -11 -8 -14 -15 -7
-15 21 0 61 48 61 75 0 21 -4 25 -27 24 -16 0 -33 -3 -39 -5z"/>
</g>
</svg>
